<svg width="16.000000" height="16.000000" viewBox="0 0 16 16" fill="none" xmlns="http://www.w3.org/2000/svg" xmlns:xlink="http://www.w3.org/1999/xlink">
	<desc>
			Created with Pixso.
	</desc>
	<defs>
		<clipPath id="clip171_7778">
			<rect id="Корзина" width="16.000000" height="16.000000" fill="white" fill-opacity="0"/>
		</clipPath>
	</defs>
	<rect id="Корзина" width="16.000000" height="16.000000" fill="#FFFFFF" fill-opacity="0"/>
	<g clip-path="url(#clip171_7778)">
		<path id="round" d="M2 6L2 14.5C2 15.32 2.67 16 3.5 16L12.5 16C13.32 16 14 15.32 14 14.5L14 6L2 6Z" fill="#5B5CE2" fill-opacity="1.000000" fill-rule="nonzero"/>
		<path id="Shape" d="M11 2L11 1C11 0.44 10.55 0 10 0L6 0C5.44 0 5 0.44 5 1L5 2L0.5 2C0.22 2 0 2.22 0 2.5L0 3.5C0 3.77 0.22 4 0.5 4L15.5 4C15.77 4 16 3.77 16 3.5L16 2.5C16 2.22 15.77 2 15.5 2L11 2Z" fill="#9999EE" fill-opacity="1.000000" fill-rule="evenodd"/>
	</g>
</svg>
